<svg width="124" height="124" viewBox="0 0 124 124" fill="none" xmlns="http://www.w3.org/2000/svg">
<circle cx="62.0001" cy="62" r="59.7857" fill="#F8FE11"/>
<circle cx="62" cy="62" r="55.3571" fill="white"/>
<path fill-rule="evenodd" clip-rule="evenodd" d="M62 2.62357C53.9837 2.62357 46.2079 4.19325 38.8884 7.28922C31.818 10.2796 25.4679 14.5611 20.0145 20.0145C14.561 25.468 10.2796 31.818 7.28915 38.8884C4.19329 46.2077 2.62361 53.9837 2.62361 62C2.62361 70.0163 4.19329 77.7922 7.28915 85.1116C10.2796 92.182 14.561 98.5321 20.0145 103.985C25.4679 109.439 31.818 113.72 38.8884 116.711C46.2079 119.807 53.9837 121.376 62 121.376C70.0163 121.376 77.7922 119.807 85.1116 116.711C92.182 113.72 98.5321 109.439 103.985 103.985C109.439 98.5321 113.72 92.182 116.711 85.1116C119.807 77.7922 121.376 70.0163 121.376 62C121.376 53.9837 119.807 46.2077 116.711 38.8884C113.72 31.818 109.439 25.468 103.985 20.0145C98.5321 14.5611 92.182 10.2796 85.1116 7.28922C77.7922 4.19325 70.0163 2.62357 62 2.62357ZM62 124C53.6306 124 45.511 122.361 37.8664 119.127C30.4833 116.004 23.853 111.534 18.1593 105.841C12.4657 100.147 7.99555 93.5168 4.87281 86.1337C1.63943 78.4892 0 70.3694 0 62C0 53.6307 1.63943 45.5108 4.87281 37.8664C7.99555 30.4834 12.4657 23.8528 18.1593 18.1594C23.853 12.4658 30.4833 7.99565 37.8664 4.87279C45.511 1.63941 53.6306 -1.52588e-05 62 -1.52588e-05C70.3694 -1.52588e-05 78.4891 1.63941 86.1336 4.87279C93.5168 7.99565 100.147 12.4658 105.841 18.1594C111.534 23.8528 116.004 30.4834 119.127 37.8664C122.361 45.5108 124 53.6307 124 62C124 70.3694 122.361 78.4892 119.127 86.1337C116.004 93.5168 111.534 100.147 105.841 105.841C100.147 111.534 93.5168 116.004 86.1336 119.127C78.4891 122.361 70.3694 124 62 124Z" fill="#F33B00"/>
<path fill-rule="evenodd" clip-rule="evenodd" d="M62.0001 6.66008C54.5289 6.66008 47.2815 8.12318 40.4596 11.0086C33.8699 13.7958 27.9514 17.7862 22.8689 22.8687C17.7863 27.9514 13.796 33.8697 11.0087 40.4595C8.12319 47.2815 6.6602 54.5288 6.6602 62C6.6602 69.4712 8.12319 76.7185 11.0087 83.5405C13.796 90.1303 17.7863 96.0486 22.8689 101.131C27.9514 106.214 33.8699 110.204 40.4596 112.991C47.2815 115.877 54.5289 117.34 62.0001 117.34C69.4712 117.34 76.7186 115.877 83.5405 112.991C90.1303 110.204 96.0487 106.214 101.131 101.131C106.214 96.0486 110.204 90.1303 112.991 83.5405C115.877 76.7185 117.34 69.4712 117.34 62C117.34 54.5288 115.877 47.2815 112.991 40.4595C110.204 33.8697 106.214 27.9514 101.131 22.8687C96.0487 17.7862 90.1303 13.7958 83.5405 11.0086C76.7186 8.12318 69.4712 6.66008 62.0001 6.66008ZM62.0001 119.089C54.2934 119.089 46.8169 117.579 39.7782 114.602C32.98 111.727 26.8748 107.611 21.6321 102.368C16.3894 97.1253 12.2732 91.02 9.39783 84.2219C6.42069 77.1831 4.91113 69.7065 4.91113 62C4.91113 54.2934 6.42069 46.8169 9.39783 39.7781C12.2732 32.98 16.3894 26.8747 21.6321 21.632C26.8748 16.3893 32.98 12.2732 39.7782 9.39771C46.8169 6.42057 54.2934 4.91101 62.0001 4.91101C69.7067 4.91101 77.1832 6.42057 84.2219 9.39771C91.0201 12.2732 97.1254 16.3893 102.368 21.632C107.611 26.8747 111.727 32.98 114.602 39.7781C117.579 46.8169 119.089 54.2934 119.089 62C119.089 69.7065 117.579 77.1831 114.602 84.2219C111.727 91.02 107.611 97.1253 102.368 102.368C97.1254 107.611 91.0201 111.727 84.2219 114.602C77.1832 117.579 69.7067 119.089 62.0001 119.089Z" fill="#F33B00"/>
<path fill-rule="evenodd" clip-rule="evenodd" d="M96.1957 62C96.1957 80.8857 80.8858 96.1956 62 96.1956C43.1144 96.1956 27.8044 80.8857 27.8044 62C27.8044 43.1143 43.1144 27.8043 62 27.8043C80.8858 27.8043 96.1957 43.1143 96.1957 62Z" fill="#F33B00"/>
<path fill-rule="evenodd" clip-rule="evenodd" d="M94.0997 62.6982C93.7282 80.1081 79.4989 94.1071 61.9999 94.1071C44.2677 94.1071 29.8928 79.7323 29.8928 62C29.8928 44.2677 44.2677 29.8928 61.9999 29.8928C79.4989 29.8928 93.7282 43.8919 94.0997 61.3018L94.1071 62L94.0997 62.6982ZM91.8851 61.3139C91.5205 45.1214 78.28 32.1071 61.9999 32.1071C45.4906 32.1071 32.1071 45.4906 32.1071 62C32.1071 78.5093 45.4906 91.8928 61.9999 91.8928C78.2801 91.8928 91.5205 78.8786 91.8851 62.6861L91.8928 62L91.8851 61.3139Z" fill="white"/>
<path fill-rule="evenodd" clip-rule="evenodd" d="M100.412 85.6945L99.2481 85.1056C99.1668 85.0645 99.0993 85.0539 99.0457 85.0738C98.9922 85.0938 98.9416 85.1505 98.8938 85.2439L98.5025 86.0102L100.127 86.8318L100.518 86.0655C100.604 85.8973 100.569 85.7737 100.412 85.6945ZM97.8677 84.4075L96.7502 83.8424C96.5938 83.7633 96.4725 83.8077 96.3866 83.9759L95.9953 84.7422L97.5822 85.5448L97.9736 84.7785C98.0595 84.6103 98.0242 84.4867 97.8677 84.4075ZM101.634 86.1478L100.375 88.6148L94.4021 85.5944L95.662 83.1274C96.066 82.3362 96.6125 82.1147 97.301 82.4629L98.3528 82.9948C98.8161 83.2292 99.0357 83.5166 99.0113 83.857C99.261 83.6305 99.6016 83.6265 100.034 83.8449L101.198 84.4338C101.893 84.7852 102.038 85.3567 101.634 86.1478ZM96.8772 91.89L92.5486 88.4648L91.6111 89.6382L95.783 92.9393C95.9205 93.0481 95.9301 93.1763 95.8122 93.3239L95.4975 93.7178C95.3838 93.8601 95.2583 93.8768 95.1209 93.768L90.9491 90.4669L90.0116 91.6403L94.34 95.0653C94.9502 95.5481 95.5307 95.4448 96.0813 94.7556L96.9598 93.6561C97.5147 92.9615 97.4873 92.3727 96.8772 91.89ZM90.127 99.2521L86.4703 95.0402L85.3385 96.0133L89.7182 101.058L92.3086 98.831L91.5856 97.998L90.127 99.2521ZM84.8901 101.737L83.5804 102.498L84.0958 103.376C84.1454 103.461 84.1618 103.53 84.1449 103.584C84.1279 103.639 84.0771 103.691 83.9921 103.74L83.6193 103.957C83.5283 104.01 83.455 104.03 83.399 104.018C83.3433 104.006 83.2905 103.958 83.2409 103.873L81.1686 100.343C81.0801 100.193 81.1177 100.069 81.2814 99.9743L81.6542 99.7575C81.8118 99.6659 81.935 99.6956 82.0235 99.8463L82.5549 100.751L83.8646 99.9899L83.2642 98.9671C82.8745 98.3035 82.2945 98.1954 81.5246 98.6431L80.3604 99.3199C79.5965 99.7641 79.4093 100.318 79.7989 100.982L82.0094 104.747C82.3991 105.411 82.9759 105.521 83.7399 105.076L84.904 104.4C85.6739 103.952 85.8643 103.396 85.4745 102.732L84.8901 101.737ZM71.5716 108.567L70.3522 103.135L68.8924 103.459L70.353 109.966L73.694 109.223L73.4529 108.149L71.5716 108.567ZM64.2212 109.546L63.9632 103.986L62.469 104.054L62.778 110.714L66.1978 110.557L66.1467 109.458L64.2212 109.546ZM56.861 108.063L56.7152 105.195L55.7762 107.91L56.861 108.063ZM57.8824 103.792L58.4885 110.61L56.9866 110.399L56.9267 109.173L55.4144 108.961L55.0154 110.122L53.5448 109.915L55.9842 103.525L57.8824 103.792ZM49.605 102.94L48.792 102.649L48.1907 104.317L49.0036 104.607C49.182 104.671 49.3009 104.62 49.3602 104.456L49.7836 103.282C49.843 103.118 49.7834 103.003 49.605 102.94ZM48.8435 105.703C48.8169 105.652 48.754 105.609 48.6549 105.574L47.8419 105.284L47.2263 106.99L48.0393 107.281C48.2177 107.345 48.3366 107.294 48.396 107.13L48.8372 105.906C48.8679 105.821 48.8701 105.753 48.8435 105.703ZM51.2278 103.653L50.8293 104.758C50.6537 105.245 50.3947 105.498 50.0522 105.516C50.3093 105.734 50.356 106.07 50.1923 106.524L49.7512 107.747C49.4878 108.477 48.9364 108.693 48.097 108.393L45.4797 107.458L47.7428 101.183L50.3601 102.118C51.1994 102.418 51.4888 102.929 51.2278 103.653ZM41.022 98.8236L42.0729 99.444L39.2191 104.231L40.5146 104.996L43.3683 100.209L44.4282 100.835L44.9925 99.888L41.5863 97.877L41.022 98.8236ZM37.0897 95.7728L36.7108 95.4396C36.5687 95.3146 36.4395 95.3178 36.3234 95.4486L33.7009 98.4022C33.5846 98.5332 33.5976 98.6611 33.7396 98.786L34.1185 99.1191C34.2553 99.2394 34.3818 99.2342 34.4981 99.1032L37.1205 96.1497C37.2367 96.0188 37.2265 95.8931 37.0897 95.7728ZM38.3888 96.9851L35.4943 100.245C34.9782 100.826 34.3886 100.825 33.7255 100.242L32.6678 99.3123C31.9995 98.7246 31.9234 98.1401 32.4396 97.5589L35.334 94.2989C35.8455 93.7229 36.4353 93.7286 37.1037 94.3163L38.1615 95.2464C38.8245 95.8295 38.9002 96.409 38.3888 96.9851ZM31.8603 90.2367L31.555 89.8356C31.4404 89.6852 31.3131 89.6628 31.1733 89.7683L28.0165 92.1485C27.8765 92.254 27.8639 92.382 27.9784 92.5324L28.2837 92.9334C28.394 93.0782 28.5191 93.0979 28.659 92.9924L31.8158 90.6121C31.9557 90.5067 31.9705 90.3815 31.8603 90.2367ZM32.8933 91.6803L29.4091 94.3075C28.7879 94.7759 28.2101 94.6592 27.6757 93.9573L26.8233 92.8378C26.2847 92.1303 26.326 91.5424 26.9474 91.074L30.4316 88.4469C31.0473 87.9826 31.6244 88.1042 32.163 88.8116L33.0154 89.9312C33.5498 90.6331 33.509 91.2161 32.8933 91.6803ZM26.9496 86.1406L26.0142 86.5993L25.2369 85.0289L22.8084 86.2194L22.1428 84.8747L28.1524 81.9285L29.7444 85.1445L28.7522 85.6309L27.8259 83.7596L26.1724 84.5702L26.9496 86.1406Z" fill="#141414"/>
<path fill-rule="evenodd" clip-rule="evenodd" d="M101.084 32.3446L100.128 31.0998L96.9683 33.4419L97.9245 34.6867C98.0403 34.8375 98.1533 34.9231 98.2634 34.9429C98.3732 34.963 98.4996 34.92 98.6423 34.8142L100.996 33.0698C101.27 32.8667 101.299 32.6247 101.084 32.3446ZM103.1 35.1376L100.171 37.309C99.2057 38.0247 98.2931 38.0245 97.4334 37.3087L94.8418 42.0714L92.9419 39.5979L95.6167 35.0781L95.3063 34.674L91.3897 37.5772L89.6264 35.2816L100.092 27.5234L103.346 31.7588C104.389 33.1168 104.307 34.2431 103.1 35.1376ZM87.2192 26.2068L90.0031 28.1967L91.2767 26.4773L88.4928 24.4875L90.3728 21.9492L93.6401 24.2845L94.9137 22.5651L89.2626 18.5258L81.5484 28.9409L87.3328 33.0754L88.6064 31.356L85.2058 28.9253L87.2192 26.2068ZM83.4579 15.3842L76.1842 12.7523L75.436 14.7477L77.68 15.5597L73.8964 25.6507L76.6628 26.6517L80.4464 16.5607L82.7098 17.3795L83.4579 15.3842ZM67.2203 11.2516L64.711 11.0839C62.9833 10.9684 62.0681 11.6516 61.9655 13.1332L61.7625 16.063C61.658 17.5717 62.4147 18.38 64.0328 18.4882L65.8428 18.6092C66.0484 18.6229 66.1899 18.6698 66.267 18.7492C66.3441 18.8289 66.3767 18.9564 66.3645 19.1312L66.2035 21.4548C66.1802 21.7917 65.9835 21.9476 65.6132 21.9229L64.9139 21.8761C64.5437 21.8514 64.3703 21.6707 64.3936 21.3338L64.4817 20.0609L61.5406 19.8643L61.4258 21.5212C61.3222 23.0163 62.141 23.8221 63.8825 23.9385L66.3712 24.1049C68.099 24.2203 69.0147 23.5306 69.1183 22.0354L69.3281 19.0045C69.3785 18.2772 69.2244 17.7156 68.8663 17.3193C68.5079 16.9234 67.8899 16.6958 67.0126 16.6372L65.2437 16.5189C65.038 16.5053 64.8966 16.4587 64.8195 16.379C64.7423 16.2996 64.7098 16.1721 64.7219 15.9969L64.8787 13.734C64.902 13.3974 65.0989 13.2412 65.469 13.2659L66.1684 13.3126C66.5385 13.3374 66.712 13.5184 66.6887 13.8549L66.6005 15.1278L69.5417 15.3245L69.6579 13.6474C69.7605 12.1658 68.948 11.367 67.2203 11.2516ZM52.0153 12.1328L53.8777 19.6079L49.272 12.7925L46.6888 13.4135L49.8059 25.9244L52.4091 25.2985L50.5417 17.8038L55.1925 24.6293L57.7556 24.0131L54.6385 11.502L52.0153 12.1328ZM42.5437 26.6276L38.4391 20.1681C38.2572 19.882 38.0145 19.8316 37.7114 20.0175L36.8721 20.5323C36.5573 20.7253 36.4909 20.9651 36.6728 21.2513L40.7775 27.7108C40.9595 27.9971 41.2077 28.0437 41.5225 27.8507L42.362 27.3359C42.6649 27.1501 42.7257 26.914 42.5437 26.6276ZM45.2519 25.4205C46.0598 26.6918 45.7292 27.7778 44.2602 28.6786L41.9168 30.1157C40.4361 31.0237 39.2919 30.842 38.4841 29.5707L33.9536 22.4412C33.1531 21.1815 33.4931 20.0975 34.9738 19.1896L37.3172 17.7525C38.7862 16.8517 39.921 17.0312 40.7215 18.291L45.2519 25.4205ZM26.5722 25.6886L36.8866 33.6405L35.2829 35.6479L28.3581 30.3091L32.0012 35.2289L30.6522 36.9176L24.9378 34.6231L31.8465 39.9495L30.2428 41.9568L19.9285 34.0048L21.9139 31.5195L29.0887 34.3478L24.5868 28.1739L26.5722 25.6886Z" fill="#141414"/>
<path fill-rule="evenodd" clip-rule="evenodd" d="M73.7983 44.1006C72.8406 45.0583 72.6011 46.4153 72.9204 47.6125L71.0047 49.4484C68.4504 47.6924 65.3375 46.6548 61.9851 46.6548C58.6328 46.6548 55.5198 47.6924 52.9656 49.4484L51.0499 47.6125C51.3692 46.4153 51.0499 45.0583 50.172 44.1006C48.7351 42.6638 46.5002 42.6638 45.0635 44.1006C43.6267 45.5372 43.7065 47.852 45.0635 49.209C46.0212 50.1668 47.2984 50.4861 48.4957 50.1668L50.172 51.843C47.4581 54.7165 45.7819 58.6276 45.7819 62.9379V74.6713C45.7819 78.1833 48.5755 80.9769 52.0875 80.9769C54.3225 80.9769 56.1584 79.9393 57.2758 78.1833C58.3135 80.4183 60.2291 80.9769 61.9851 80.9769C63.6614 80.9769 65.6568 80.4183 66.6945 78.2632C66.9339 78.5824 67.1734 78.8219 67.4129 79.1412C68.6101 80.3385 70.2065 80.9769 71.8827 80.9769C75.315 80.9769 78.1884 78.1036 78.1884 74.6713V62.9379C78.1884 58.6276 76.5122 54.7165 73.7983 51.843L75.4746 50.1668C76.592 50.4861 77.9491 50.1668 78.9068 49.209C80.3436 47.7723 80.3436 45.5372 78.9068 44.1006C78.1885 43.3821 77.2706 43.023 76.3526 43.023C75.4347 43.023 74.5168 43.3821 73.7983 44.1006ZM49.4535 74.7511V62.9379C49.3737 55.9936 55.0408 50.3265 61.9851 50.3265C68.9295 50.3265 74.5966 55.9936 74.5966 63.0177V74.7511C74.5966 76.2678 73.3992 77.465 71.8827 77.465C71.1644 77.465 70.5258 77.1456 69.9671 76.6668C69.3286 76.0282 69.2488 75.5493 69.1689 74.5915C69.0891 73.1547 67.9716 72.0373 66.455 72.0373C65.0183 72.0373 63.7412 73.2346 63.7412 74.7511C63.7412 77.3054 63.0228 77.465 61.9851 77.465C60.9475 77.465 60.2291 77.3054 60.2291 74.6713C60.2291 73.2346 59.0318 72.0373 57.5153 72.0373C56.0785 72.0373 54.961 73.0748 54.8013 74.5117C54.6417 76.4274 53.6839 77.465 52.1673 77.465C50.6508 77.465 49.4535 76.2678 49.4535 74.7511ZM54.8013 61.1818C54.8013 65.1727 57.9942 68.4454 61.9851 68.4454C65.9762 68.4454 69.1689 65.1727 69.1689 61.1818C69.1689 57.191 65.9762 53.9182 61.9851 53.9182C57.9942 53.9182 54.8013 57.191 54.8013 61.1818ZM58.3933 61.102C58.3933 59.1066 59.9897 57.5101 61.9851 57.5101C63.9806 57.5101 65.577 59.1066 65.577 61.102C65.577 63.0975 63.9806 64.6938 61.9851 64.6938C59.9897 64.6938 58.3933 63.0975 58.3933 61.102Z" fill="#FF8200"/>
<path fill-rule="evenodd" clip-rule="evenodd" d="M73.7983 43.2025C72.8406 44.1604 72.6011 45.5173 72.9204 46.7147L71.0047 48.5504C68.4504 46.7944 65.3375 45.7567 61.9851 45.7567C58.6328 45.7567 55.5198 46.7944 52.9656 48.5504L51.0499 46.7147C51.3692 45.5173 51.0499 44.1604 50.172 43.2025C48.7351 41.7658 46.5002 41.7658 45.0635 43.2025C43.6267 44.6393 43.7065 46.9541 45.0635 48.3109C46.0212 49.2689 47.2984 49.5881 48.4957 49.2689L50.172 50.945C47.4581 53.8185 45.7819 57.7297 45.7819 62.0399V73.7734C45.7819 77.2854 48.5755 80.0791 52.0875 80.0791C54.3225 80.0791 56.1584 79.0415 57.2758 77.2854C58.3135 79.5204 60.2291 80.0791 61.9851 80.0791C63.6614 80.0791 65.6568 79.5204 66.6945 77.3652C66.9339 77.6845 67.1734 77.9238 67.4129 78.2432C68.6101 79.4405 70.2065 80.0791 71.8827 80.0791C75.315 80.0791 78.1884 77.2056 78.1884 73.7734V62.0399C78.1884 57.7297 76.5122 53.8185 73.7983 50.945L75.4746 49.2689C76.592 49.5881 77.9491 49.2689 78.9068 48.3109C80.3436 46.8743 80.3436 44.6393 78.9068 43.2025C78.1885 42.4841 77.2706 42.125 76.3526 42.125C75.4347 42.125 74.5168 42.4841 73.7983 43.2025ZM49.4535 73.8532V62.0399C49.3737 55.0956 55.0408 49.4285 61.9851 49.4285C68.9295 49.4285 74.5966 55.0956 74.5966 62.1197V73.8532C74.5966 75.3696 73.3992 76.567 71.8827 76.567C71.1644 76.567 70.5258 76.2478 69.9671 75.7688C69.3286 75.1302 69.2488 74.6514 69.1689 73.6935C69.0891 72.2568 67.9716 71.1393 66.455 71.1393C65.0183 71.1393 63.7412 72.3365 63.7412 73.8532C63.7412 76.4074 63.0228 76.567 61.9851 76.567C60.9475 76.567 60.2291 76.4074 60.2291 73.7734C60.2291 72.3365 59.0318 71.1393 57.5153 71.1393C56.0785 71.1393 54.961 72.177 54.8013 73.6137C54.6417 75.5293 53.6839 76.567 52.1673 76.567C50.6508 76.567 49.4535 75.3696 49.4535 73.8532ZM54.8013 60.2839C54.8013 64.2748 57.9942 67.5474 61.9851 67.5474C65.9762 67.5474 69.1689 64.2748 69.1689 60.2839C69.1689 56.2928 65.9762 53.0204 61.9851 53.0204C57.9942 53.0204 54.8013 56.2928 54.8013 60.2839ZM58.3933 60.2041C58.3933 58.2086 59.9897 56.6122 61.9851 56.6122C63.9806 56.6122 65.577 58.2086 65.577 60.2041C65.577 62.1995 63.9806 63.7959 61.9851 63.7959C59.9897 63.7959 58.3933 62.1995 58.3933 60.2041Z" fill="#F8FE11"/>
<path fill-rule="evenodd" clip-rule="evenodd" d="M109.417 58.8685C111.147 60.598 111.147 63.402 109.417 65.1315C107.688 66.8609 104.884 66.8609 103.154 65.1315C101.425 63.402 101.425 60.598 103.154 58.8685C104.884 57.1391 107.688 57.1391 109.417 58.8685ZM107.159 63.7559H105.413L105.075 64.2221L105.613 65.7204C106.058 65.8005 106.514 65.8005 106.959 65.7204L107.496 64.2221L107.159 63.7559ZM109.161 64.4548L108.09 64.4874L107.728 65.4956C108.176 65.3111 108.595 65.037 108.959 64.6732L109.063 64.5655L109.161 64.4548ZM103.613 64.6732C103.976 65.0369 104.396 65.311 104.843 65.4955L104.481 64.4874L103.41 64.4548C103.474 64.5296 103.542 64.6025 103.613 64.6732ZM103.801 61.5394L102.54 62.5153C102.601 62.9572 102.739 63.3905 102.956 63.7928L104.55 63.841L104.888 63.3739L104.35 61.7179L103.801 61.5394ZM108.77 61.5394L108.221 61.7179L107.683 63.3739L108.021 63.841L109.615 63.7928C109.832 63.3906 109.971 62.9575 110.031 62.5157L108.77 61.5394ZM106.286 60.6399L104.988 61.5826L105.484 63.1082H107.087L107.583 61.5826L106.286 60.6399ZM109.507 60.0195L109.204 61.0555L110.055 61.7143C110.015 61.1726 109.858 60.638 109.584 60.151L109.507 60.0195ZM102.516 61.7139L103.367 61.0555L103.064 60.0199C102.743 60.541 102.561 61.1232 102.516 61.7139ZM103.613 59.3268L103.554 59.3861L104.003 60.9233L104.549 61.1009L105.961 60.0748V59.4988L104.637 58.5968C104.267 58.7762 103.92 59.0195 103.613 59.3268ZM107.934 58.5968L106.609 59.4988V60.0748L108.022 61.1009L108.568 60.9233L109.017 59.3861L108.959 59.3268L108.869 59.24C108.625 59.0114 108.359 58.8212 108.077 58.6695L107.934 58.5968ZM105.391 58.3263L106.286 58.9354L107.18 58.3262C106.593 58.1839 105.978 58.1839 105.391 58.3263Z" fill="#381579"/>
<path fill-rule="evenodd" clip-rule="evenodd" d="M20.8457 58.8685C22.5752 60.598 22.5752 63.402 20.8457 65.1315C19.1162 66.8609 16.3122 66.8609 14.5827 65.1315C12.8533 63.402 12.8533 60.598 14.5827 58.8685C16.3122 57.1391 19.1162 57.1391 20.8457 58.8685ZM18.587 63.7559H16.841L16.5032 64.2221L17.0411 65.7204C17.486 65.8005 17.9424 65.8005 18.3873 65.7204L18.9248 64.2221L18.587 63.7559ZM20.5895 64.4548L19.5181 64.4874L19.1564 65.4956C19.6042 65.3111 20.0236 65.037 20.3874 64.6732L20.491 64.5655L20.5895 64.4548ZM15.041 64.6732C15.4047 65.0369 15.824 65.311 16.2716 65.4955L15.9099 64.4874L14.8389 64.4548C14.9029 64.5296 14.9703 64.6025 15.041 64.6732ZM15.2299 61.5394L13.9688 62.5153C14.0293 62.9572 14.1679 63.3905 14.3847 63.7928L15.9787 63.841L16.317 63.3739L15.7786 61.7179L15.2299 61.5394ZM20.1981 61.5394L19.6494 61.7179L19.1111 63.3739L19.4494 63.841L21.0437 63.7928C21.2605 63.3906 21.3991 62.9575 21.4596 62.5157L20.1981 61.5394ZM17.7142 60.6399L16.4163 61.5826L16.9123 63.1082H18.5157L19.0117 61.5826L17.7142 60.6399ZM20.9354 60.0195L20.6328 61.0555L21.484 61.7143C21.4431 61.1726 21.2861 60.638 21.0128 60.151L20.9354 60.0195ZM13.9445 61.7139L14.7952 61.0555L14.4928 60.0199C14.1718 60.541 13.9891 61.1232 13.9445 61.7139ZM15.041 59.3268L14.9828 59.3861L15.4317 60.9233L15.9778 61.1009L17.3897 60.0748V59.4988L16.0656 58.5968C15.6953 58.7762 15.3483 59.0195 15.041 59.3268ZM19.3628 58.5968L18.0378 59.4988V60.0748L19.4502 61.1009L19.9963 60.9233L20.4453 59.3861L20.3874 59.3268L20.2978 59.24C20.0539 59.0114 19.7871 58.8212 19.5051 58.6695L19.3628 58.5968ZM16.8196 58.3263L17.7142 58.9354L18.6084 58.3262C18.0213 58.1839 17.4067 58.1839 16.8196 58.3263Z" fill="#381579"/>
</svg>
